<svg width="1144" height="680" viewBox="0 0 1144 680" fill="none" xmlns="http://www.w3.org/2000/svg">
<rect width="1144" height="680" fill="#111111"/>
<path d="M466.739 303.651V337.832H428.047V303.67H406.71V393.386H428.047V357.298H466.758V393.386H488.113V303.651H466.739ZM566.283 303.651L543.957 339.179L521.668 303.651H496.483L533.326 362.29V393.367H554.643V362.29L591.486 303.651H566.283ZM660.091 303.651V369.396C660.091 371.901 658.223 373.902 655.57 373.902H621.379V303.67H600.043V393.386H663.08C668.685 393.386 673.206 391.703 676.495 388.431C679.764 385.14 681.427 380.634 681.427 375.043V303.651H660.091ZM764.249 303.651H701.194V393.367H722.493V323.061H756.757C759.504 323.061 761.241 325.23 761.241 327.548V393.367H782.577V321.995C782.577 316.385 780.896 311.86 777.664 308.588C774.338 305.297 769.854 303.651 764.249 303.651V303.651ZM865.4 303.651H802.344V393.367H865.4C871.005 393.367 875.489 391.684 878.758 388.412C882.065 385.121 883.709 380.615 883.709 375.024V321.995C883.709 316.385 882.065 311.86 878.758 308.588C875.489 305.297 870.986 303.651 865.4 303.651V303.651ZM862.392 327.717V369.265C862.412 369.871 862.309 370.476 862.089 371.041C861.87 371.607 861.538 372.122 861.113 372.556C860.689 372.989 860.181 373.332 859.62 373.563C859.06 373.795 858.458 373.91 857.852 373.902H823.643V323.079H857.702C860.505 323.079 862.373 325.024 862.373 327.717H862.392ZM920.889 303.651C915.284 303.651 910.762 305.297 907.493 308.588C904.205 311.898 902.579 316.404 902.579 321.995V393.367H923.841V365.619H962.589V393.367H983.907V303.651H920.889ZM962.589 323.079V346.191H923.841V327.604C923.841 325.398 925.559 323.061 928.399 323.061L962.589 323.079ZM1004.66 393.367H1026V303.651H1004.66V393.367ZM239.926 411C307.279 411 361.89 383.008 361.89 348.509C361.89 313.973 307.279 286 239.926 286C172.592 286 118 313.954 118 348.509C118 383.008 172.592 410.981 239.926 410.981V411ZM262.906 380.316C260.851 385.046 257.357 395.125 249.324 399.145C246.763 400.315 243.992 400.951 241.178 401.015H239.945C217.45 401.015 196.488 397.874 178.963 392.545L178.29 392.283C176.665 391.74 175.843 390.993 175.843 390.058C175.843 389.272 176.273 388.655 176.852 388.076L177.954 387.103C182.027 383.737 194.208 374.893 217.17 366.067C225.222 363.001 235.311 359.168 245.867 356.924C252.051 355.634 275.013 352.118 262.888 380.334L262.906 380.316ZM324.505 317.32C324.934 316.572 325.513 315.936 326.56 315.88C327.12 315.824 327.905 315.955 329.082 316.703C343.393 325.51 351.894 336.542 351.894 348.491C351.894 370.013 324.224 388.543 284.635 396.64C282.094 397.144 280.394 397.126 279.833 396.49C279.422 396.116 279.31 395.405 279.833 394.545C280.128 394.023 280.479 393.534 280.879 393.087C302.44 367.657 318.862 330.129 323.514 319.321C323.888 318.573 324.224 317.825 324.505 317.32V317.32ZM217.338 316.535C219.393 311.823 222.887 301.744 230.921 297.743C233.35 296.527 236.376 295.948 239.048 295.873H240.262C262.794 295.873 283.719 298.977 301.281 304.343C301.412 304.399 301.823 304.53 301.954 304.605C303.561 305.147 304.383 305.895 304.383 306.812C304.383 307.616 303.953 308.214 303.393 308.775C303.131 309.037 302.776 309.336 302.272 309.747C298.236 313.15 286.036 321.976 263.074 330.783C254.985 333.868 244.914 337.702 234.396 339.927C228.193 341.236 205.213 344.751 217.338 316.535V316.535ZM195.255 300.304C197.796 299.818 199.477 299.818 200.094 300.454C200.467 300.865 200.561 301.539 200.075 302.38C199.769 302.9 199.413 303.389 199.01 303.838C177.45 329.287 161.027 366.797 156.338 377.642C156.001 378.39 155.646 379.138 155.348 379.624C154.937 380.372 154.357 381.026 153.33 381.082C152.769 381.138 151.966 380.97 150.77 380.241C136.459 371.453 127.995 360.42 127.995 348.472C127.995 326.931 155.647 308.401 195.255 300.323" fill="white"/>
</svg>
