<svg width="1144" height="680" viewBox="0 0 1144 680" fill="none" xmlns="http://www.w3.org/2000/svg">
<rect width="1144" height="680" fill="#111111"/>
<path fill-rule="evenodd" clip-rule="evenodd" d="M283.943 193.474L241.914 301.519H205.817L198.896 321.791H233.015L198.399 409.067C198.399 409.067 184.06 448.134 185.049 464.451C186.038 480.772 193.948 488.682 204.828 489.179C215.705 489.671 235.489 486.212 261.201 455.056C287.852 422.774 293.069 406.089 295.754 387.31C297.732 373.468 293.839 352.203 287.906 342.311C281.969 332.423 275.544 321.795 275.544 321.795H305.211L314.607 301.523H268.122L312.133 191.496L283.943 193.474ZM333.393 300.778L309.162 354.673C309.162 354.673 298.526 378.726 304.219 386.818C313.614 400.169 342.789 395.221 342.789 395.221L352.681 371.982H342.789C342.789 371.982 332.405 374.456 333.89 365.065C335.371 355.67 338.341 352.703 340.319 348.252C342.301 343.8 361.584 297.812 361.584 297.812L333.393 300.778ZM423.889 193.474L360.099 357.147C360.099 357.147 351.2 378.908 355.155 384.836C359.11 390.777 362.076 395.221 370.483 395.221H404.602L413.008 371.49H390.755C390.755 371.49 380.37 372.975 384.326 361.598C388.285 350.229 452.567 191 452.567 191L423.889 193.474Z" fill="white"/>
<path fill-rule="evenodd" clip-rule="evenodd" d="M476.799 291.875C461.466 291.875 447.127 298.801 439.217 307.7C429.842 318.245 413.36 341.657 413.919 355.665C414.415 368.027 415.9 386.09 426.359 392.746C436.822 399.411 446.846 400.892 461.963 396.213C474.68 392.279 494.609 375.325 500.041 362.09C502.546 356.005 505.019 349.907 507.459 343.796H514.38C514.38 343.796 513.884 353.688 513.884 360.609C513.884 367.527 517.342 382.855 522.29 387.306C527.238 391.758 538.611 396.701 553.939 395.216C569.267 393.739 573.719 387.306 578.663 383.847C583.607 380.389 593.498 366.045 593.498 366.045C593.498 366.045 596.473 378.899 598.935 383.847C601.409 388.791 607.345 394.724 611.296 395.216C615.256 395.717 638.001 395.216 638.001 395.216L644.426 370.497H635.532C635.532 370.497 624.655 375.441 621.681 359.12C618.714 342.807 616.745 339.833 622.181 325.99C627.617 312.147 683.985 191.488 683.985 191.488L654.459 193.912L610.308 289.894C610.308 289.894 583.4 288.549 564.812 297.808C550.34 305.015 532.67 320.554 532.67 320.554H509.428C509.428 320.554 505.08 307.005 501.021 301.266C493.93 291.246 476.799 291.875 476.799 291.875Z" fill="white"/>
<path fill-rule="evenodd" clip-rule="evenodd" d="M738.877 343.8C738.877 343.8 736.849 350.44 731.459 362.095C725.34 375.329 706.214 392.664 693.385 396.218C678.921 400.226 669.154 397.695 657.785 392.751C646.408 387.815 645.833 368.031 645.34 355.67C644.782 341.666 661.268 318.245 670.639 307.704C678.549 298.805 692.892 291.88 708.22 291.88C708.22 291.88 723.991 291.921 732.452 301.275C737.164 306.488 740.854 320.562 740.854 320.562H746.29C746.29 320.562 751.573 322.196 753.708 316.607C756.869 308.341 766.07 279.518 766.07 279.518H787.339L784.364 292.872H838.759L832.826 318.092H824.416C824.416 318.092 805.993 332.432 801.049 343.312C796.105 354.189 792.283 364.081 798.211 367.535C804.144 371.002 828.375 369.02 828.375 369.02L823.431 394.24H799.2C799.2 394.24 781.89 395.225 775.469 388.307C769.036 381.382 767.559 367.039 771.018 356.659C774.476 346.278 784.377 331.935 787.831 325.998C791.286 320.062 792.283 317.099 792.283 317.099H778.432C778.432 317.099 772.995 335.394 764.088 339.349C755.198 343.304 738.877 343.8 738.877 343.8Z" fill="white"/>
<path fill-rule="evenodd" clip-rule="evenodd" d="M942.605 320.558H924.31C924.31 320.558 919.809 307.116 915.908 301.271C908.312 289.898 891.677 291.875 891.677 291.875C876.349 291.875 862.005 298.801 854.095 307.7C844.721 318.241 828.813 341.661 829.368 355.665C829.86 368.027 831.014 385.734 841.237 392.746C851.137 399.544 864.475 401.157 876.837 396.213C889.199 391.269 906.968 374.043 914.911 362.09C922.407 350.808 923.814 340.337 923.814 340.337H934.198L942.605 320.558ZM934.426 294.883C934.426 288.512 939.233 283.704 945.389 283.704C951.483 283.704 956.29 288.512 956.29 294.883C956.29 301.362 951.483 306.136 945.389 306.136C939.237 306.136 934.426 301.362 934.426 294.883ZM945.393 308.378C952.728 308.378 959 302.681 959 294.883C959 287.159 952.728 281.462 945.393 281.462C937.992 281.462 931.728 287.159 931.728 294.883C931.728 302.681 937.992 308.378 945.393 308.378ZM942.547 295.95H945.252L949.348 302.677H951.984L947.565 295.843C949.845 295.561 951.591 294.349 951.591 291.573C951.591 288.512 949.774 287.159 946.113 287.159H940.197V302.681H942.547V295.95ZM942.547 293.956V289.149H945.753C947.387 289.149 949.129 289.505 949.129 291.428C949.129 293.816 947.35 293.956 945.356 293.956H942.547ZM386.444 249.95C386.444 243.548 383.901 237.409 379.375 232.883C374.848 228.357 368.709 225.814 362.308 225.814C355.907 225.814 349.767 228.357 345.241 232.883C340.715 237.409 338.172 243.548 338.172 249.95C338.172 256.351 340.715 262.49 345.241 267.016C349.767 271.543 355.907 274.086 362.308 274.086C368.709 274.086 374.848 271.543 379.375 267.016C383.901 262.49 386.444 256.351 386.444 249.95Z" fill="white"/>
<path fill-rule="evenodd" clip-rule="evenodd" d="M232.518 386.326C232.518 386.326 213.864 432.31 211.394 437.258C208.924 442.206 204.965 458.523 208.428 462.474C211.887 466.433 214.721 466.925 228.563 454.071C242.406 441.217 261.693 419.948 266.145 398.687C270.592 377.427 273.066 358.632 263.671 345.286C254.276 331.931 255.264 335.89 252.794 339.345C250.32 342.812 232.518 386.326 232.518 386.326ZM467.403 313.14C467.403 313.14 452.568 324.513 447.131 330.446C442.61 335.377 429.938 351.715 436.251 362.091C443.172 373.468 445.15 374.945 453.561 373.468C461.967 371.982 472.066 364.937 477.295 359.124C490.646 344.288 484.709 340.338 484.709 340.338C484.709 340.338 478.776 338.356 474.325 331.434C469.873 324.513 467.403 313.14 467.403 313.14ZM698.821 313.14C698.821 313.14 683.986 324.513 678.549 330.446C674.023 335.377 661.355 351.715 667.673 362.091C674.59 373.468 676.568 374.945 684.983 373.468C693.385 371.982 703.488 364.937 708.713 359.124C722.064 344.288 716.131 340.338 716.131 340.338C716.131 340.338 710.198 338.356 705.747 331.434C701.295 324.513 698.821 313.14 698.821 313.14ZM882.278 313.14C882.278 313.14 867.442 324.513 862.006 330.446C857.488 335.377 844.82 351.715 851.129 362.091C858.055 373.468 860.024 374.945 868.439 373.468C876.841 371.982 886.944 364.937 892.169 359.124C905.528 344.288 899.587 340.338 899.587 340.338C899.587 340.338 893.655 338.356 889.203 331.434C884.752 324.513 882.278 313.14 882.278 313.14ZM564.816 323.524C552.454 331.931 541.081 344.785 539.596 354.18C538.111 363.576 541.574 368.524 547.014 369.016C552.45 369.508 558.387 370.998 567.286 362.591C576.185 354.18 585.58 343.304 590.528 334.401C595.472 325.502 600.449 316.247 591.513 315.61C577.674 314.621 564.816 323.524 564.816 323.524Z" fill="#111111"/>
</svg>
