<svg width="1144" height="680" viewBox="0 0 1144 680" fill="none" xmlns="http://www.w3.org/2000/svg">
<rect width="1144" height="680" fill="#111111"/>
<path fill-rule="evenodd" clip-rule="evenodd" d="M358.44 379.732L374.991 301.292H399.392L386.68 361.381H420.551L416.711 379.731H358.44V379.732ZM481.041 369.319H455.445L450.326 379.732H423.196L469.864 301.292H495.971L506.124 379.732H481.894L481.041 369.319V369.319ZM479.761 349.688L477.713 324.935L465.513 349.688H479.761ZM804.734 344.054C808.148 322.46 810.365 312.985 812.839 301.292H837.497L820.859 379.732L796.801 379.562L780.505 336.97C778.543 350.029 777.431 358.906 772.483 379.732H747.914L764.55 301.292H788.61L804.734 344.054V344.054ZM847.052 301.292H871.368L865.992 326.727L893.634 301.292H921.874L890.563 330.824L908.053 379.732H884.42L872.476 345.335L859.762 356.26L854.729 379.732H830.413L847.052 301.292V301.292ZM929.893 301.292H999L995.246 319.387H972.723L959.927 379.732H935.269L948.068 319.387H926.139L929.893 301.292V301.292ZM190.024 384C165.794 384 146 364.283 146 340.043C146 315.717 165.794 296 190.024 296C214.339 296 234.047 315.717 234.047 340.043C234.047 364.283 214.339 384 190.024 384ZM281.91 379.732L298.462 301.292H335.063C352.724 301.292 364.583 305.474 361.255 321.009C359.293 328.691 354.686 334.495 347.69 338.165C355.71 340.213 358.354 349.09 356.563 357.54C352.809 375.123 339.67 379.732 319.279 379.732H281.91ZM319.194 316.314L316.464 329.373H329.347C334.466 329.373 337.537 327.069 338.476 322.46C339.755 316.4 334.807 316.314 329.347 316.314H319.194V316.314ZM309.212 362.491H321.583C327.896 362.491 332.93 361.21 334.21 355.321C335.66 348.407 329.773 347.981 321.583 347.981H312.283L309.212 362.491V362.491ZM522.078 301.292H546.394L536.497 348.238C534.876 355.919 534.705 363.686 545.284 363.686C554.499 363.686 558.765 356.688 560.556 348.238L570.453 301.292H595.024L585.385 347.81C580.008 372.989 566.955 383.146 540.933 383.146C516.618 383.146 506.721 374.696 512.437 347.725L522.078 301.292V301.292ZM587.772 379.732H612.43L617.293 356.688H630.26C652.784 356.688 664.388 350.541 668.908 329.972C672.407 313.926 663.619 301.293 641.096 301.293H604.408C604.408 301.292 587.175 379.476 587.772 379.732ZM625.141 319.643H632.394C637.854 319.643 648.007 320.07 646.301 329.886C645.702 335.775 640.5 340.043 634.611 339.531H620.875L625.141 319.643V319.643ZM682.049 301.292H706.45L696.468 348.238C694.845 355.919 694.674 363.686 705.255 363.686C714.555 363.686 718.734 356.688 720.526 348.238L730.508 301.292H755.079L745.437 347.81C740.149 372.989 727.01 383.146 700.902 383.146C676.586 383.146 666.776 374.696 672.492 347.725L682.049 301.292V301.292Z" fill="white"/>
</svg>
