<svg width="1144" height="680" viewBox="0 0 1144 680" fill="none" xmlns="http://www.w3.org/2000/svg">
<rect width="1144" height="680" fill="#111111"/>
<path d="M905.245 336.686C904.734 339.422 904.133 338.105 903.687 336.768C894.363 305.873 864.693 283.287 829.534 283.287C794.482 283.287 764.885 305.738 755.467 336.491C755.04 338.105 753.723 337.7 753.704 336.484C752.945 303.684 727.674 282.058 694.733 282.259C678.061 282.359 664.492 288.803 659.459 295.844C659.049 296.456 658.043 296.652 658.043 295.232V248H622.368V358.68C622.368 375.303 612.231 398.411 588.312 398.411C566.418 398.411 555.877 385.845 555.877 361.114V316.11H611.825V282.056H555.877V248H520.201V336.585C520.201 338.714 518.883 338.714 518.098 336.68C508.886 305.681 479.384 282.928 444.793 282.928C421.589 282.928 401.48 292.641 387.301 308.691C386.717 309.219 386.312 308.713 386.413 308.003V282.056C326.355 282.056 312.857 315.983 309.661 337.089C309.383 338.815 307.66 338.714 307.282 336.983C298.382 305.777 269.658 282.928 235.597 282.928C221.343 282.928 208.028 288.948 196.685 299.501C196.685 299.501 196.677 248.001 196.685 248.001L161 248L161.061 357.462C161.153 398.627 194.432 432 235.597 432C270.097 432 299.123 408.559 307.617 376.737C307.964 375.809 308.572 375.91 308.572 376.72V428.006H344.249V357.871C344.249 322.785 364.695 317.129 380.132 316.261C381.141 316.212 381.171 316.671 380.801 317.201C373.184 328.813 368.766 342.634 368.766 357.462C368.766 398.627 402.804 432 444.793 432C479.315 432 508.667 409.439 517.941 378.535C518.478 375.809 520.123 375.812 520.366 378.547C522.216 401.645 539.922 431.249 585.068 431.249C600.159 431.249 614.229 422.868 619.592 416.71C620.946 415.439 622.367 415.439 622.367 417.871V428.006H658.042V348.342C658.853 333.341 666.556 314.287 687.434 314.287C713.584 314.287 718.044 331.518 718.044 338.004V428.007H753.722V378.647C753.722 377.229 755.241 377.432 755.412 378.253C764.765 409.102 794.41 431.641 829.534 431.641C864.57 431.641 893.186 411.082 899.379 378.788L866.126 378.764C859.283 393.703 845.464 403.914 829.534 403.914C810.561 403.914 794.585 389.325 789.82 369.617L827.103 369.627H903.727V428.007H939.404V357.871C939.404 317.732 968.594 316.11 984 316.11V282.056C924.321 282.056 909.23 315.555 905.245 336.686ZM233.562 399.46C210.447 399.46 191.708 380.719 191.708 357.604C191.708 334.49 210.447 315.751 233.562 315.751C256.677 315.751 275.417 334.491 275.417 357.604C275.417 380.719 256.677 399.46 233.562 399.46ZM444.021 399.46C420.906 399.46 402.166 380.719 402.166 357.604C402.166 334.49 420.906 315.751 444.021 315.751C467.137 315.751 485.875 334.491 485.875 357.604C485.876 380.719 467.137 399.46 444.021 399.46ZM828.653 340.265V340.259H792.797C798.832 323.061 813.7 310.899 831.084 310.899C848.474 310.899 863.342 323.065 869.376 340.265H828.653ZM962.078 416.811C960.742 415.482 959.126 414.816 957.233 414.816C955.352 414.816 953.746 415.482 952.417 416.811C951.081 418.144 950.415 419.754 950.415 421.636C950.415 423.536 951.075 425.155 952.399 426.489C953.728 427.832 955.339 428.502 957.233 428.502C959.126 428.502 960.742 427.832 962.078 426.489C963.414 425.148 964.08 423.529 964.08 421.636C964.08 419.747 963.413 418.139 962.078 416.811ZM961.397 425.828C960.254 426.983 958.866 427.56 957.232 427.56C955.599 427.56 954.212 426.984 953.069 425.828C951.931 424.672 951.363 423.276 951.363 421.635C951.363 420.007 951.933 418.62 953.078 417.471C954.226 416.315 955.611 415.736 957.232 415.736C958.859 415.736 960.247 416.314 961.397 417.471C962.54 418.621 963.112 420.007 963.112 421.635C963.112 423.276 962.54 424.672 961.397 425.828Z" fill="white"/>
</svg>
