<svg width="1144" height="680" viewBox="0 0 1144 680" fill="none" xmlns="http://www.w3.org/2000/svg">
<rect width="1144" height="680" fill="#111111"/>
<path fill-rule="evenodd" clip-rule="evenodd" d="M266.685 394.088C258.397 371.184 250.462 350.747 247.64 344.933C242.527 333.834 233.534 322.734 220.485 320.444C220.661 320.444 221.719 320.268 222.425 320.268C246.406 316.92 256.81 299.302 256.81 281.507C256.81 266.179 248.346 242.219 209.2 242.219L168.466 242.219C165.645 242.219 163 244.509 163 247.328L163 395.321C163 398.14 165.645 400.431 168.466 400.431L179.752 400.431C182.573 400.431 184.865 398.14 184.865 395.321L184.865 329.253L195.974 329.253C212.021 329.253 219.251 339.119 224.717 349.338C231.241 361.494 235.826 378.584 241.998 396.907C242.879 399.902 244.995 400.607 247.64 400.607L263.158 400.607C267.39 400.431 268.095 397.788 266.685 394.088V394.088ZM206.202 310.401L185.042 310.401L185.042 261.422L208.847 261.422C225.775 261.423 234.592 271.465 234.592 284.326C234.415 300.535 223.659 310.401 206.202 310.401ZM308.299 285.031C282.378 285.031 264.921 307.406 264.921 342.995C264.921 381.579 283.084 401.664 315.353 401.664C329.107 401.664 337.042 399.55 344.624 396.202C347.269 394.969 348.68 392.679 347.622 389.86L344.977 382.284C344.095 379.641 342.156 377.879 338.629 378.936C331.752 380.874 325.404 382.989 316.411 382.989C295.251 382.989 288.197 370.832 287.139 348.809L345.859 348.809C348.68 348.809 350.972 346.519 350.972 343.7C351.149 300.359 332.281 285.031 308.299 285.031V285.031ZM287.316 332.6C289.608 308.111 300.364 302.297 309.005 302.297C323.641 302.297 328.754 317.625 329.283 332.6L287.316 332.6ZM418.332 380.346L398.759 380.346C390.295 380.346 386.592 378.936 386.592 374.003C386.592 371.36 388.532 368.894 390.824 366.78C394.527 367.661 398.406 368.189 402.286 368.189C428.383 368.189 445.135 352.333 445.135 326.434C445.135 318.506 441.608 310.577 436.671 303.883L444.43 303.002C447.251 302.825 449.191 301.064 449.191 298.069L449.191 291.902C449.191 288.907 447.251 286.44 444.077 286.44L416.921 286.44C411.984 286.44 407.223 285.207 402.286 285.207C377.07 285.207 359.965 300.007 359.965 326.434C359.965 341.938 366.49 353.742 376.893 360.613C371.251 365.723 366.49 371.889 366.49 380.17C366.49 393.736 378.48 398.493 392.411 398.493L415.334 398.493C428.03 398.493 432.968 403.602 432.968 413.292C432.968 423.687 421.682 430.029 407.223 430.029C396.114 430.029 383.947 427.915 382.007 415.406C381.478 412.411 379.715 410.649 376.893 410.473L365.079 409.944C362.258 409.944 359.965 412.059 359.965 414.878L359.965 415.054C360.142 440.424 383.947 448 406.694 448C428.383 448 453.599 438.134 453.599 410.825C453.423 391.445 439.668 380.346 418.332 380.346V380.346ZM402.462 301.24C413.924 301.24 423.446 305.292 423.446 325.905C423.446 347.047 413.395 351.628 402.462 351.628C391.177 351.628 381.655 347.928 381.655 325.905C381.655 305.116 391.177 301.24 402.462 301.24ZM487.808 246.623C487.808 238.695 481.46 232 473.348 232C465.413 232 458.713 238.343 458.713 246.447L458.713 246.623C458.713 254.904 465.061 261.423 473.348 261.423C481.46 261.423 487.808 254.904 487.808 246.623V246.623ZM484.105 395.145L484.105 291.55C484.105 288.731 481.46 286.44 478.991 286.44L468.411 286.44C465.59 286.44 462.945 288.731 462.945 291.55L462.945 395.145C462.945 397.964 465.59 400.254 468.411 400.254L478.991 400.254C481.46 400.431 484.105 397.964 484.105 395.145ZM540.708 285.031C512.495 285.031 494.685 307.23 494.685 343.347C494.685 379.817 512.318 401.488 540.708 401.488C569.274 401.488 586.379 379.289 586.379 343.347C586.379 307.406 568.922 285.031 540.708 285.031V285.031ZM563.984 343.347C563.984 371.889 554.991 383.517 540.179 383.517C525.543 383.517 516.55 371.713 516.55 343.347C516.55 315.334 525.543 303.178 540.179 303.178C554.991 303.178 563.984 315.334 563.984 343.347ZM666.611 316.215C685.655 310.577 693.766 298.773 693.766 281.155C693.766 257.899 677.896 241.866 650.564 241.866L604.894 241.866C602.072 241.866 599.427 244.157 599.427 246.976L599.427 394.969C599.427 397.788 602.072 400.078 604.894 400.078L653.033 400.078C682.657 400.078 700.643 383.869 700.643 355.504C700.467 335.243 689.182 318.858 666.611 316.215V316.215ZM621.293 260.718L646.332 260.718C663.084 260.718 671.372 269.175 671.372 284.326C671.372 298.949 662.379 308.111 644.745 308.111L621.469 308.111L621.469 260.718L621.293 260.718ZM676.838 353.39C676.838 370.656 667.14 380.874 650.917 380.874L621.293 380.874L621.293 325.553L646.509 325.553C665.553 325.553 676.838 337.357 676.838 353.39V353.39ZM793.042 395.145L791.632 388.274C790.221 381.227 790.397 374.884 790.397 369.07L790.397 328.196C790.397 309.168 787.4 285.207 749.84 285.207C739.789 285.207 728.151 287.85 721.274 289.612C718.453 290.316 717.219 292.607 717.924 295.778L719.864 304.411C720.569 307.406 722.861 309.168 726.035 308.111C732.383 306.525 739.437 304.059 748.606 304.059C765.358 304.059 769.061 310.401 769.061 324.144L769.061 329.781L743.14 331.367C724.096 332.777 707.873 342.643 707.873 367.837C707.873 388.979 719.335 401.488 738.202 401.488C751.251 401.488 763.418 396.731 770.648 385.279L772.235 395.674C772.764 399.021 774.88 400.431 777.701 400.431L788.458 400.431C791.808 400.254 793.395 398.14 793.042 395.145V395.145ZM769.237 362.551C769.237 371.184 759.539 384.222 744.55 384.222C735.91 384.222 729.738 379.113 729.738 367.661C729.738 350.042 740.142 345.814 754.425 345.285L769.237 344.757L769.237 362.551ZM885.794 395.145L885.794 314.454C885.794 296.835 874.509 285.031 856.875 285.031C844.356 285.031 834.481 289.788 824.606 301.24L822.314 290.669C821.609 287.674 820.022 286.44 816.671 286.44L809.618 286.44C806.796 286.44 804.151 288.555 804.151 291.374L804.151 395.145C804.151 397.964 806.796 400.254 809.618 400.254L820.374 400.254C823.196 400.254 825.488 397.964 825.488 395.145L825.488 331.191C825.488 315.511 836.597 303.354 850.88 303.354C860.578 303.354 864.281 308.287 864.281 319.21L864.281 395.145C864.281 397.964 866.926 400.254 869.748 400.254L880.504 400.254C883.326 400.254 885.794 397.964 885.794 395.145V395.145ZM980.309 394.088L941.692 335.243L973.256 292.255C975.196 289.612 973.961 286.44 970.611 286.44L955.623 286.44C952.272 286.44 950.156 288.026 948.746 290.493L920.179 334.01L920.179 238.519C920.179 235.7 918.063 233.41 915.242 233.41L904.486 233.41C901.664 233.41 899.372 235.524 899.372 238.343L899.372 395.321C899.372 398.14 901.664 400.431 904.486 400.431L915.066 400.431C917.887 400.431 920.179 398.14 920.179 395.321L920.179 339.119L954.388 396.026C955.975 398.845 958.091 400.431 960.736 400.431L977.488 400.431C980.662 400.255 981.896 396.731 980.309 394.088V394.088Z" fill="white"/>
</svg>
