<svg width="1144" height="680" viewBox="0 0 1144 680" fill="none" xmlns="http://www.w3.org/2000/svg">
<rect width="1144" height="680" fill="#111111"/>
<path d="M460.539 279.036H411.574C409.953 279.035 408.385 279.614 407.153 280.668C405.92 281.722 405.104 283.182 404.851 284.786L385.048 410.517C384.957 411.1 384.993 411.696 385.154 412.264C385.316 412.832 385.598 413.359 385.981 413.807C386.365 414.255 386.842 414.615 387.377 414.861C387.913 415.108 388.496 415.235 389.086 415.234H412.462C414.084 415.235 415.653 414.655 416.886 413.599C418.119 412.544 418.934 411.082 419.185 409.477L424.526 375.565C424.777 373.962 425.591 372.501 426.823 371.445C428.054 370.39 429.621 369.809 431.242 369.808H446.742C478.996 369.808 497.611 354.179 502.473 323.207C504.664 309.657 502.566 299.01 496.23 291.554C489.27 283.366 476.927 279.036 460.539 279.036V279.036ZM466.188 324.956C463.51 342.55 450.086 342.55 437.106 342.55H429.717L434.9 309.692C435.052 308.731 435.541 307.856 436.28 307.224C437.019 306.591 437.959 306.244 438.931 306.244H442.318C451.16 306.244 459.501 306.244 463.811 311.291C466.381 314.302 467.169 318.776 466.188 324.956V324.956ZM606.903 324.39H583.455C582.483 324.39 581.543 324.737 580.804 325.369C580.066 326.002 579.576 326.877 579.424 327.838L578.386 334.406L576.747 332.025C571.671 324.648 560.351 322.182 549.053 322.182C523.143 322.182 501.012 341.833 496.702 369.4C494.461 383.151 497.647 396.3 505.437 405.469C512.582 413.901 522.806 417.414 534.97 417.414C555.848 417.414 567.425 403.971 567.425 403.971L566.38 410.495C566.286 411.078 566.321 411.675 566.48 412.244C566.639 412.813 566.92 413.34 567.302 413.79C567.685 414.24 568.16 414.601 568.695 414.849C569.231 415.097 569.813 415.226 570.403 415.227H591.524C593.146 415.228 594.715 414.648 595.948 413.592C597.181 412.537 597.996 411.075 598.247 409.47L610.92 329.107C611.013 328.525 610.979 327.93 610.82 327.362C610.661 326.795 610.381 326.269 609.999 325.82C609.617 325.372 609.142 325.011 608.608 324.764C608.073 324.517 607.492 324.39 606.903 324.39V324.39ZM574.219 370.088C571.957 383.502 561.325 392.507 547.765 392.507C540.956 392.507 535.514 390.32 532.021 386.176C528.555 382.061 527.238 376.204 528.341 369.679C530.453 356.38 541.264 347.081 554.616 347.081C561.275 347.081 566.687 349.297 570.253 353.476C573.826 357.699 575.243 363.592 574.219 370.088V370.088ZM731.781 324.39H708.219C707.108 324.392 706.014 324.665 705.032 325.186C704.05 325.707 703.21 326.46 702.584 327.38L670.087 375.315L656.312 329.251C655.889 327.846 655.025 326.615 653.849 325.739C652.673 324.864 651.247 324.391 649.782 324.39H626.628C625.978 324.388 625.337 324.542 624.758 324.838C624.18 325.135 623.68 325.565 623.301 326.094C622.922 326.623 622.675 327.235 622.58 327.879C622.485 328.522 622.545 329.18 622.754 329.796L648.708 406.064L624.308 440.557C623.874 441.168 623.617 441.887 623.565 442.636C623.512 443.384 623.666 444.132 624.01 444.798C624.354 445.465 624.874 446.023 625.514 446.413C626.154 446.803 626.888 447.009 627.637 447.009H651.171C652.27 447.011 653.352 446.745 654.326 446.236C655.3 445.726 656.136 444.988 656.763 444.084L735.132 330.807C735.557 330.194 735.806 329.476 735.852 328.732C735.899 327.987 735.741 327.244 735.396 326.583C735.05 325.922 734.531 325.368 733.894 324.981C733.257 324.595 732.526 324.39 731.781 324.39V324.39Z" fill="white"/>
<path d="M809.792 279.036H760.82C759.201 279.037 757.634 279.616 756.403 280.67C755.172 281.724 754.357 283.184 754.105 284.786L734.301 410.517C734.209 411.099 734.244 411.695 734.404 412.262C734.564 412.83 734.845 413.356 735.227 413.804C735.61 414.253 736.084 414.613 736.619 414.859C737.154 415.106 737.736 415.234 738.325 415.234H763.455C764.589 415.233 765.685 414.826 766.546 414.087C767.407 413.349 767.976 412.327 768.152 411.205L773.772 375.566C774.023 373.962 774.837 372.501 776.069 371.445C777.3 370.39 778.867 369.809 780.488 369.808H795.981C828.243 369.808 846.85 354.179 851.719 323.207C853.917 309.657 851.805 299.01 845.469 291.554C838.517 283.366 826.181 279.036 809.792 279.036V279.036ZM815.441 324.956C812.771 342.55 799.346 342.55 786.359 342.55H778.977L784.168 309.693C784.317 308.731 784.804 307.855 785.542 307.222C786.28 306.59 787.22 306.243 788.192 306.244H791.578C800.413 306.244 808.761 306.244 813.071 311.291C815.642 314.303 816.422 318.776 815.441 324.956V324.956ZM956.149 324.39H932.716C931.744 324.387 930.803 324.734 930.065 325.367C929.327 325.999 928.839 326.877 928.692 327.838L927.654 334.406L926.007 332.025C920.931 324.648 909.619 322.182 898.321 322.182C872.41 322.182 850.287 341.833 845.977 369.4C843.743 383.151 846.915 396.3 854.704 405.469C861.864 413.901 872.074 417.414 884.238 417.414C905.115 417.414 916.692 403.971 916.692 403.971L915.647 410.495C915.554 411.08 915.588 411.677 915.748 412.247C915.909 412.817 916.19 413.345 916.574 413.795C916.958 414.245 917.436 414.606 917.973 414.854C918.51 415.101 919.094 415.228 919.685 415.227H940.799C942.42 415.226 943.987 414.646 945.218 413.59C946.449 412.535 947.264 411.073 947.515 409.47L960.194 329.107C960.284 328.524 960.247 327.927 960.085 327.359C959.923 326.791 959.64 326.265 959.255 325.817C958.871 325.369 958.395 325.009 957.858 324.763C957.322 324.516 956.739 324.389 956.149 324.39V324.39ZM923.465 370.088C921.217 383.502 910.571 392.507 897.011 392.507C890.216 392.507 884.761 390.32 881.267 386.176C877.801 382.061 876.498 376.204 877.587 369.679C879.713 356.38 890.51 347.081 903.862 347.081C910.521 347.081 915.934 349.297 919.499 353.476C923.086 357.699 924.504 363.593 923.465 370.088V370.088ZM983.792 282.484L963.695 410.517C963.603 411.099 963.638 411.695 963.798 412.262C963.958 412.83 964.239 413.356 964.621 413.804C965.004 414.253 965.479 414.613 966.014 414.859C966.548 415.106 967.13 415.234 967.719 415.234H987.924C991.281 415.234 994.131 412.797 994.646 409.477L1014.46 283.753C1014.56 283.171 1014.52 282.575 1014.36 282.007C1014.2 281.439 1013.92 280.913 1013.54 280.464C1013.16 280.015 1012.68 279.654 1012.15 279.406C1011.61 279.159 1011.03 279.03 1010.44 279.029H987.816C986.845 279.032 985.906 279.382 985.169 280.015C984.432 280.648 983.944 281.524 983.792 282.484V282.484Z" fill="white"/>
<path d="M181.708 439.668L185.452 415.851L177.111 415.657H137.282L164.961 239.912C165.044 239.375 165.316 238.886 165.729 238.533C166.141 238.181 166.667 237.988 167.209 237.991H234.367C256.662 237.991 272.048 242.637 280.081 251.807C283.847 256.108 286.245 260.603 287.405 265.55C288.622 270.741 288.644 276.943 287.455 284.506L287.369 285.059V289.905L291.135 292.042C294.01 293.5 296.594 295.473 298.76 297.863C301.982 301.541 304.065 306.216 304.946 311.758C305.855 317.457 305.555 324.24 304.065 331.918C302.347 340.751 299.569 348.444 295.818 354.738C292.507 360.378 288.057 365.262 282.751 369.077C277.768 372.619 271.847 375.308 265.153 377.028C258.666 378.72 251.27 379.573 243.159 379.573H237.932C234.195 379.573 230.565 380.921 227.715 383.337C224.87 385.779 222.982 389.153 222.389 392.858L221.995 395.002L215.379 436.979L215.079 438.521C215 439.008 214.864 439.252 214.663 439.417C214.469 439.576 214.227 439.664 213.976 439.668H181.708Z" fill="white"/>
<path d="M294.701 285.618C294.5 286.901 294.271 288.213 294.013 289.561C285.157 335.094 254.858 350.824 216.16 350.824H196.457C191.724 350.824 187.736 354.265 186.999 358.94L176.911 423.006L174.054 441.166C173.94 441.887 173.984 442.623 174.181 443.325C174.379 444.027 174.726 444.678 175.199 445.232C175.672 445.787 176.26 446.232 176.921 446.538C177.582 446.843 178.302 447.002 179.03 447.002H213.976C218.114 447.002 221.63 443.991 222.281 439.904L222.625 438.126L229.205 396.314L229.627 394.02C230.271 389.919 233.794 386.908 237.932 386.908H243.159C277.017 386.908 303.521 373.142 311.268 333.309C314.504 316.669 312.829 302.774 304.266 293.002C301.552 289.979 298.311 287.477 294.701 285.618V285.618Z" fill="white"/>
<path d="M285.436 281.918C282.608 281.099 279.732 280.46 276.823 280.004C271.076 279.12 265.268 278.695 259.454 278.735H206.816C204.813 278.733 202.875 279.45 201.354 280.754C199.832 282.058 198.826 283.865 198.518 285.847L187.321 356.868L186.999 358.94C187.347 356.679 188.493 354.618 190.228 353.129C191.962 351.64 194.172 350.823 196.456 350.824H216.16C254.857 350.824 285.157 335.087 294.013 289.561C294.278 288.213 294.5 286.901 294.701 285.618C292.364 284.39 289.928 283.362 287.419 282.542C286.762 282.323 286.1 282.115 285.436 281.918V281.918Z" fill="#EEEEEE"/>
<path d="M198.518 285.847C198.823 283.864 199.829 282.057 201.351 280.753C202.874 279.449 204.813 278.736 206.816 278.742H259.454C265.69 278.742 271.511 279.151 276.823 280.011C280.418 280.577 283.963 281.423 287.427 282.542C290.04 283.409 292.467 284.434 294.708 285.617C297.343 268.791 294.686 257.334 285.601 246.96C275.585 235.539 257.507 230.649 234.374 230.649H167.217C162.491 230.649 158.46 234.091 157.73 238.772L129.757 416.324C129.627 417.148 129.677 417.991 129.903 418.794C130.129 419.598 130.526 420.342 131.067 420.977C131.608 421.612 132.28 422.122 133.036 422.473C133.793 422.823 134.616 423.005 135.449 423.006H176.911L187.321 356.867L198.518 285.847Z" fill="white"/>
</svg>
