<svg width="390" height="512" viewBox="0 0 390 512" fill="none" xmlns="http://www.w3.org/2000/svg">
<path d="M390 75C390 33.645 356.355 0 315 0H75C33.645 0 0 33.645 0 75C0 111.219 25.808 141.522 60 148.491V165C60 184.555 72.541 201.228 90 207.42V482H75C66.716 482 60 488.716 60 497C60 505.284 66.716 512 75 512H315C323.284 512 330 505.284 330 497C330 488.716 323.284 482 315 482H300V207.42C317.459 201.228 330 184.555 330 165V148.491C364.192 141.522 390 111.219 390 75ZM120 482V210H270V482H120ZM300 165C300 173.271 293.271 180 285 180H105C96.729 180 90 173.271 90 165V150H300V165ZM315 120C306.729 120 300 113.271 300 105C300 96.729 306.729 90 315 90C323.284 90 330 83.284 330 75C330 66.716 323.284 60 315 60C290.187 60 270 80.187 270 105C270 110.258 270.915 115.305 272.58 120H117.42C119.085 115.305 120 110.258 120 105C120 80.187 99.813 60 75 60C66.716 60 60 66.716 60 75C60 83.284 66.716 90 75 90C83.271 90 90 96.729 90 105C90 113.271 83.271 120 75 120C50.187 120 30 99.813 30 75C30 50.187 50.187 30 75 30H315C339.813 30 360 50.187 360 75C360 99.813 339.813 120 315 120Z" fill="#28F6C4"/>
<path d="M165 240C156.716 240 150 246.716 150 255V437C150 445.284 156.716 452 165 452C173.284 452 180 445.284 180 437V255C180 246.716 173.284 240 165 240Z" fill="#28F6C4"/>
<path d="M225 240C216.716 240 210 246.716 210 255V437C210 445.284 216.716 452 225 452C233.284 452 240 445.284 240 437V255C240 246.716 233.284 240 225 240Z" fill="#28F6C4"/>
</svg>
