<svg width="459" height="512" viewBox="0 0 459 512" fill="none" xmlns="http://www.w3.org/2000/svg">
<path d="M452.76 112.98L399.02 59.24C391.209 51.429 378.546 51.429 370.736 59.24C362.926 67.051 362.925 79.714 370.736 87.524L383.464 100.252L357.362 126.354C323.384 98.008 282.07 80.896 238 76.913V40H256C267.046 40 276 31.046 276 20C276 8.954 267.046 0 256 0H180C168.954 0 160 8.954 160 20C160 31.046 168.954 40 180 40H198V76.913C88.276 86.829 0 178.968 0 294C0 414.482 97.501 512 218 512C338.482 512 436 414.499 436 294C436 242.489 418.244 193.714 385.646 154.638L411.748 128.536L424.476 141.264C432.286 149.074 444.949 149.075 452.76 141.264C460.57 133.454 460.57 120.791 452.76 112.98ZM218 472C119.851 472 40 392.149 40 294C40 195.851 119.851 116 218 116C316.149 116 396 195.851 396 294C396 392.149 316.15 472 218 472ZM321.923 294C321.923 305.046 312.969 314 301.923 314H218.001C206.955 314 198.001 305.046 198.001 294V176.325C198.001 165.279 206.955 156.325 218.001 156.325C229.047 156.325 238.001 165.279 238.001 176.325V274H301.923C312.969 274 321.923 282.954 321.923 294Z" fill="#28F6C4"/>
</svg>
