<svg width="512" height="512" viewBox="0 0 512 512" fill="none" xmlns="http://www.w3.org/2000/svg">
<path d="M457 101H356.812L347.069 71.77C340.933 53.365 323.776 41 304.377 41H207.623C188.224 41 171.067 53.365 164.932 71.77L155.188 101H131V76C131 56.701 115.299 41 96 41H76C56.701 41 41 56.701 41 76V102.812C17.432 109.02 0 130.51 0 156V416C0 446.327 24.673 471 55 471H457C487.327 471 512 446.327 512 416V156C512 125.673 487.327 101 457 101ZM71 76C71 73.243 73.243 71 76 71H96C98.757 71 101 73.243 101 76V101H71V76ZM482 416C482 429.785 470.785 441 457 441H55C41.215 441 30 429.785 30 416V156C30 142.215 41.215 131 55 131H166C172.456 131 178.188 126.869 180.23 120.743L193.392 81.257C195.438 75.122 201.156 71 207.623 71H304.377C310.844 71 316.563 75.122 318.607 81.256L331.769 120.743C333.812 126.869 339.544 131 346 131H457C470.785 131 482 142.215 482 156V416Z" fill="#28F6C4"/>
<path d="M436 191C444.284 191 451 184.284 451 176C451 167.716 444.284 161 436 161C427.716 161 421 167.716 421 176C421 184.284 427.716 191 436 191Z" fill="#28F6C4"/>
<path d="M106 161H76C67.716 161 61 167.716 61 176C61 184.284 67.716 191 76 191H106C114.284 191 121 184.284 121 176C121 167.716 114.284 161 106 161Z" fill="#28F6C4"/>
<path d="M256 411C181.561 411 121 350.439 121 276C121 201.561 181.561 141 256 141C330.439 141 391 201.561 391 276C391 350.439 330.439 411 256 411ZM256 171C198.103 171 151 218.103 151 276C151 333.897 198.103 381 256 381C313.897 381 361 333.897 361 276C361 218.103 313.897 171 256 171Z" fill="#28F6C4"/>
<path d="M256 351C214.645 351 181 317.355 181 276C181 234.645 214.645 201 256 201C297.355 201 331 234.645 331 276C331 317.355 297.355 351 256 351ZM256 231C231.187 231 211 251.187 211 276C211 300.813 231.187 321 256 321C280.813 321 301 300.813 301 276C301 251.187 280.813 231 256 231Z" fill="#28F6C4"/>
</svg>
