<svg width="1694" height="415" viewBox="0 0 1694 415" fill="none" xmlns="http://www.w3.org/2000/svg">
<path d="M286.802 83.572H283.926V66.3217C283.926 63.0537 282.627 59.9197 280.315 57.6089C278.004 55.2982 274.868 54 271.599 54H226.812C223.543 54 220.407 55.2982 218.096 57.6089C215.784 59.9197 214.485 63.0537 214.485 66.3217V83.572H117.515V66.3217C117.515 63.0537 116.216 59.9197 113.904 57.6089C111.593 55.2982 108.457 54 105.188 54H60.401C57.1317 54 53.9964 55.2982 51.6847 57.6089C49.373 59.9197 48.0742 63.0537 48.0742 66.3217V83.572H45.198C33.2108 83.572 21.7145 88.3319 13.2382 96.8047C4.76192 105.277 0 116.769 0 128.751V353.827C0 365.809 4.76192 377.301 13.2382 385.773C21.7145 394.246 33.2108 399.006 45.198 399.006H286.802C298.789 399.006 310.286 394.246 318.762 385.773C327.238 377.301 332 365.809 332 353.827V128.751C332 116.769 327.238 105.277 318.762 96.8047C310.286 88.3319 298.789 83.572 286.802 83.572ZM239.139 78.6433H259.272V102.054H239.139V78.6433ZM72.7277 78.6433H92.8614V102.054H72.7277V78.6433ZM45.198 108.215H48.0742V113.965C48.0742 117.233 49.373 120.367 51.6847 122.678C53.9964 124.989 57.1317 126.287 60.401 126.287H105.188C108.457 126.287 111.593 124.989 113.904 122.678C116.216 120.367 117.515 117.233 117.515 113.965V108.215H214.485V113.965C214.485 117.233 215.784 120.367 218.096 122.678C220.407 124.989 223.543 126.287 226.812 126.287H271.599C274.868 126.287 278.004 124.989 280.315 122.678C282.627 120.367 283.926 117.233 283.926 113.965V108.215H286.802C292.251 108.215 297.476 110.379 301.329 114.23C305.182 118.081 307.347 123.305 307.347 128.751V150.52H24.6535V128.751C24.6535 123.305 26.818 118.081 30.6708 114.23C34.5237 110.379 39.7493 108.215 45.198 108.215V108.215ZM286.802 374.363H45.198C39.7493 374.363 34.5237 372.199 30.6708 368.348C26.818 364.497 24.6535 359.273 24.6535 353.827V175.163H307.347V353.827C307.347 359.273 305.182 364.497 301.329 368.348C297.476 372.199 292.251 374.363 286.802 374.363Z" fill="#28F6C4"/>
<path d="M118.748 195.699H69.441C66.1717 195.699 63.0364 196.997 60.7247 199.308C58.413 201.618 57.1143 204.752 57.1143 208.02V253.2C57.1143 256.468 58.413 259.602 60.7247 261.912C63.0364 264.223 66.1717 265.521 69.441 265.521H118.748C122.017 265.521 125.153 264.223 127.464 261.912C129.776 259.602 131.075 256.468 131.075 253.2V208.02C131.075 204.752 129.776 201.618 127.464 199.308C125.153 196.997 122.017 195.699 118.748 195.699ZM106.421 240.878H81.7677V220.342H106.421V240.878Z" fill="#28F6C4"/>
<path d="M274.887 218.289H159.838V242.932H274.887V218.289Z" fill="#28F6C4"/>
<path d="M118.748 286.058H69.441C66.1717 286.058 63.0364 287.356 60.7247 289.667C58.413 291.977 57.1143 295.111 57.1143 298.379V343.559C57.1143 346.827 58.413 349.961 60.7247 352.271C63.0364 354.582 66.1717 355.88 69.441 355.88H118.748C122.017 355.88 125.153 354.582 127.464 352.271C129.776 349.961 131.075 346.827 131.075 343.559V298.379C131.075 295.111 129.776 291.977 127.464 289.667C125.153 287.356 122.017 286.058 118.748 286.058ZM106.421 331.237H81.7677V310.701H106.421V331.237Z" fill="#28F6C4"/>
<path d="M274.887 308.648H159.838V333.291H274.887V308.648Z" fill="#28F6C4"/>
<path d="M528.08 95.52V128.4H483.44V264H442.4V128.4H397.76V95.52H528.08ZM628.357 265.68C612.517 265.68 597.957 262 584.677 254.64C571.557 247.28 561.077 237.04 553.237 223.92C545.557 210.64 541.717 195.76 541.717 179.28C541.717 162.8 545.557 148 553.237 134.88C561.077 121.76 571.557 111.52 584.677 104.16C597.957 96.8 612.517 93.12 628.357 93.12C644.197 93.12 658.677 96.8 671.797 104.16C685.077 111.52 695.477 121.76 702.997 134.88C710.677 148 714.517 162.8 714.517 179.28C714.517 195.76 710.677 210.64 702.997 223.92C695.317 237.04 684.917 247.28 671.797 254.64C658.677 262 644.197 265.68 628.357 265.68ZM628.357 228.24C641.797 228.24 652.517 223.76 660.517 214.8C668.677 205.84 672.757 194 672.757 179.28C672.757 164.4 668.677 152.56 660.517 143.76C652.517 134.8 641.797 130.32 628.357 130.32C614.757 130.32 603.877 134.72 595.717 143.52C587.717 152.32 583.717 164.24 583.717 179.28C583.717 194.16 587.717 206.08 595.717 215.04C603.877 223.84 614.757 228.24 628.357 228.24ZM865.749 149.76C865.749 159.52 863.509 168.48 859.029 176.64C854.549 184.64 847.669 191.12 838.389 196.08C829.109 201.04 817.589 203.52 803.829 203.52H778.389V264H737.349V95.52H803.829C817.269 95.52 828.629 97.84 837.909 102.48C847.189 107.12 854.149 113.52 858.789 121.68C863.429 129.84 865.749 139.2 865.749 149.76ZM800.709 170.88C808.549 170.88 814.389 169.04 818.229 165.36C822.069 161.68 823.989 156.48 823.989 149.76C823.989 143.04 822.069 137.84 818.229 134.16C814.389 130.48 808.549 128.64 800.709 128.64H778.389V170.88H800.709ZM979.014 128.4V162.48H1033.97V194.16H979.014V231.12H1041.17V264H937.974V95.52H1041.17V128.4H979.014ZM1225.98 95.52L1166.22 264H1114.86L1055.1 95.52H1098.78L1140.54 222.72L1182.54 95.52H1225.98ZM1284.17 128.4V162.48H1339.13V194.16H1284.17V231.12H1346.33V264H1243.13V95.52H1346.33V128.4H1284.17ZM1523.69 264H1482.65L1414.01 160.08V264H1372.97V95.52H1414.01L1482.65 199.92V95.52H1523.69V264ZM1674.64 95.52V128.4H1630V264H1588.96V128.4H1544.32V95.52H1674.64Z" fill="black"/>
<path d="M462.82 337.96C467.62 337.96 471.67 339.16 474.97 341.56C478.33 343.96 480.67 347.17 481.99 351.19V338.59H490.18V388H481.99V375.4C480.67 379.42 478.33 382.63 474.97 385.03C471.67 387.43 467.62 388.63 462.82 388.63C458.44 388.63 454.54 387.61 451.12 385.57C447.7 383.53 445 380.62 443.02 376.84C441.1 373 440.14 368.5 440.14 363.34C440.14 358.18 441.1 353.68 443.02 349.84C445 346 447.7 343.06 451.12 341.02C454.54 338.98 458.44 337.96 462.82 337.96ZM465.16 345.25C460.12 345.25 456.07 346.87 453.01 350.11C450.01 353.29 448.51 357.7 448.51 363.34C448.51 368.98 450.01 373.42 453.01 376.66C456.07 379.84 460.12 381.43 465.16 381.43C468.4 381.43 471.28 380.68 473.8 379.18C476.38 377.68 478.39 375.58 479.83 372.88C481.27 370.12 481.99 366.94 481.99 363.34C481.99 359.74 481.27 356.56 479.83 353.8C478.39 351.04 476.38 348.94 473.8 347.5C471.28 346 468.4 345.25 465.16 345.25ZM575.215 337.78C580.975 337.78 585.595 339.64 589.075 343.36C592.615 347.02 594.385 352.33 594.385 359.29V388H586.195V360.01C586.195 355.15 584.995 351.43 582.595 348.85C580.255 346.27 577.015 344.98 572.875 344.98C568.555 344.98 565.075 346.42 562.435 349.3C559.855 352.12 558.565 356.29 558.565 361.81V388H550.375V360.01C550.375 355.15 549.175 351.43 546.775 348.85C544.375 346.27 541.135 344.98 537.055 344.98C532.675 344.98 529.165 346.42 526.525 349.3C523.945 352.12 522.655 356.29 522.655 361.81V388H514.465V338.59H522.655V349.84C523.855 345.94 525.985 342.97 529.045 340.93C532.165 338.83 535.735 337.78 539.755 337.78C543.955 337.78 547.585 338.86 550.645 341.02C553.765 343.12 555.985 346.24 557.305 350.38C558.685 346.36 560.995 343.27 564.235 341.11C567.475 338.89 571.135 337.78 575.215 337.78ZM638.601 337.96C643.401 337.96 647.451 339.16 650.751 341.56C654.111 343.96 656.451 347.17 657.771 351.19V338.59H665.961V388H657.771V375.4C656.451 379.42 654.111 382.63 650.751 385.03C647.451 387.43 643.401 388.63 638.601 388.63C634.221 388.63 630.321 387.61 626.901 385.57C623.481 383.53 620.781 380.62 618.801 376.84C616.881 373 615.921 368.5 615.921 363.34C615.921 358.18 616.881 353.68 618.801 349.84C620.781 346 623.481 343.06 626.901 341.02C630.321 338.98 634.221 337.96 638.601 337.96ZM640.941 345.25C635.901 345.25 631.851 346.87 628.791 350.11C625.791 353.29 624.291 357.7 624.291 363.34C624.291 368.98 625.791 373.42 628.791 376.66C631.851 379.84 635.901 381.43 640.941 381.43C644.181 381.43 647.061 380.68 649.581 379.18C652.161 377.68 654.171 375.58 655.611 372.88C657.051 370.12 657.771 366.94 657.771 363.34C657.771 359.74 657.051 356.56 655.611 353.8C654.171 351.04 652.161 348.94 649.581 347.5C647.061 346 644.181 345.25 640.941 345.25ZM695.016 381.07H721.476V388H686.016V381.43L711.216 345.52H686.736V338.59H720.576V345.25L695.016 381.07ZM740.222 324.1C740.222 322.6 740.732 321.4 741.752 320.5C742.772 319.54 744.122 319.06 745.802 319.06C747.482 319.06 748.832 319.54 749.852 320.5C750.872 321.4 751.382 322.6 751.382 324.1C751.382 325.6 750.872 326.83 749.852 327.79C748.832 328.69 747.482 329.14 745.802 329.14C744.122 329.14 742.772 328.69 741.752 327.79C740.732 326.83 740.222 325.6 740.222 324.1ZM749.852 338.59V388H741.662V338.59H749.852ZM800.279 337.78C806.039 337.78 810.689 339.64 814.229 343.36C817.769 347.02 819.539 352.33 819.539 359.29V388H811.349V360.01C811.349 355.09 810.089 351.31 807.569 348.67C805.049 346.03 801.629 344.71 797.309 344.71C792.809 344.71 789.209 346.18 786.509 349.12C783.809 352 782.459 356.23 782.459 361.81V388H774.269V338.59H782.459V350.29C783.719 346.27 785.939 343.18 789.119 341.02C792.359 338.86 796.079 337.78 800.279 337.78ZM863.601 337.96C868.401 337.96 872.451 339.16 875.751 341.56C879.111 343.96 881.451 347.17 882.771 351.19V338.59H890.961V388.81C890.961 393.37 890.001 397.42 888.081 400.96C886.161 404.5 883.461 407.26 879.981 409.24C876.501 411.22 872.451 412.21 867.831 412.21C861.171 412.21 855.741 410.59 851.541 407.35C847.341 404.17 844.671 399.85 843.531 394.39H851.631C852.591 397.69 854.391 400.27 857.031 402.13C859.731 404.05 863.181 405.01 867.381 405.01C871.821 405.01 875.481 403.57 878.361 400.69C881.301 397.87 882.771 393.91 882.771 388.81V375.4C881.451 379.42 879.111 382.63 875.751 385.03C872.451 387.43 868.401 388.63 863.601 388.63C859.221 388.63 855.321 387.61 851.901 385.57C848.481 383.53 845.781 380.62 843.801 376.84C841.881 373 840.921 368.5 840.921 363.34C840.921 358.18 841.881 353.68 843.801 349.84C845.781 346 848.481 343.06 851.901 341.02C855.321 338.98 859.221 337.96 863.601 337.96ZM865.941 345.25C860.901 345.25 856.851 346.87 853.791 350.11C850.791 353.29 849.291 357.7 849.291 363.34C849.291 368.98 850.791 373.42 853.791 376.66C856.851 379.84 860.901 381.43 865.941 381.43C869.181 381.43 872.061 380.68 874.581 379.18C877.161 377.68 879.171 375.58 880.611 372.88C882.051 370.12 882.771 366.94 882.771 363.34C882.771 359.74 882.051 356.56 880.611 353.8C879.171 351.04 877.161 348.94 874.581 347.5C872.061 346 869.181 345.25 865.941 345.25ZM974.742 337.78C980.502 337.78 985.152 339.64 988.692 343.36C992.232 347.02 994.002 352.33 994.002 359.29V388H985.812V360.01C985.812 355.09 984.552 351.31 982.032 348.67C979.512 346.03 976.092 344.71 971.772 344.71C967.272 344.71 963.672 346.18 960.972 349.12C958.272 352 956.922 356.23 956.922 361.81V388H948.732V321.4H956.922V350.29C958.182 346.27 960.402 343.18 963.582 341.02C966.822 338.86 970.542 337.78 974.742 337.78ZM1038.06 337.96C1042.86 337.96 1046.91 339.16 1050.21 341.56C1053.57 343.96 1055.91 347.17 1057.23 351.19V338.59H1065.42V388H1057.23V375.4C1055.91 379.42 1053.57 382.63 1050.21 385.03C1046.91 387.43 1042.86 388.63 1038.06 388.63C1033.68 388.63 1029.78 387.61 1026.36 385.57C1022.94 383.53 1020.24 380.62 1018.26 376.84C1016.34 373 1015.38 368.5 1015.38 363.34C1015.38 358.18 1016.34 353.68 1018.26 349.84C1020.24 346 1022.94 343.06 1026.36 341.02C1029.78 338.98 1033.68 337.96 1038.06 337.96ZM1040.4 345.25C1035.36 345.25 1031.31 346.87 1028.25 350.11C1025.25 353.29 1023.75 357.7 1023.75 363.34C1023.75 368.98 1025.25 373.42 1028.25 376.66C1031.31 379.84 1035.36 381.43 1040.4 381.43C1043.64 381.43 1046.52 380.68 1049.04 379.18C1051.62 377.68 1053.63 375.58 1055.07 372.88C1056.51 370.12 1057.23 366.94 1057.23 363.34C1057.23 359.74 1056.51 356.56 1055.07 353.8C1053.63 351.04 1051.62 348.94 1049.04 347.5C1046.52 346 1043.64 345.25 1040.4 345.25ZM1097.9 321.4V388H1089.71V321.4H1097.9ZM1130.51 321.4V388H1122.32V321.4H1130.51ZM1170.4 337.96C1175.98 337.96 1180.45 339.43 1183.81 342.37C1187.23 345.25 1189.3 349.15 1190.02 354.07H1182.19C1181.83 351.13 1180.6 348.73 1178.5 346.87C1176.46 344.95 1173.7 343.99 1170.22 343.99C1167.28 343.99 1164.97 344.71 1163.29 346.15C1161.67 347.53 1160.86 349.42 1160.86 351.82C1160.86 353.62 1161.4 355.09 1162.48 356.23C1163.62 357.31 1165 358.15 1166.62 358.75C1168.3 359.29 1170.58 359.89 1173.46 360.55C1177.12 361.39 1180.06 362.26 1182.28 363.16C1184.56 364 1186.48 365.38 1188.04 367.3C1189.66 369.22 1190.47 371.8 1190.47 375.04C1190.47 379.06 1188.94 382.33 1185.88 384.85C1182.88 387.37 1178.86 388.63 1173.82 388.63C1167.94 388.63 1163.14 387.22 1159.42 384.4C1155.7 381.58 1153.51 377.65 1152.85 372.61H1160.77C1161.07 375.61 1162.36 378.04 1164.64 379.9C1166.98 381.76 1170.04 382.69 1173.82 382.69C1176.64 382.69 1178.83 381.97 1180.39 380.53C1182.01 379.09 1182.82 377.2 1182.82 374.86C1182.82 372.94 1182.25 371.41 1181.11 370.27C1179.97 369.13 1178.56 368.26 1176.88 367.66C1175.2 367.06 1172.89 366.43 1169.95 365.77C1166.29 364.93 1163.35 364.09 1161.13 363.25C1158.97 362.41 1157.11 361.09 1155.55 359.29C1154.05 357.43 1153.3 354.94 1153.3 351.82C1153.3 347.68 1154.83 344.35 1157.89 341.83C1160.95 339.25 1165.12 337.96 1170.4 337.96ZM1268.02 326.89C1263.64 326.83 1260.58 327.58 1258.84 329.14C1257.16 330.7 1256.32 333.4 1256.32 337.24V338.59H1268.02V345.79H1256.32V388H1248.13V345.79H1241.02V338.59H1248.13V336.61C1248.13 324.79 1254.76 319.15 1268.02 319.69V326.89ZM1310.58 337.96C1315.32 337.96 1319.55 338.98 1323.27 341.02C1327.05 343.06 1329.99 346 1332.09 349.84C1334.25 353.68 1335.33 358.18 1335.33 363.34C1335.33 368.5 1334.25 373 1332.09 376.84C1329.99 380.62 1327.05 383.53 1323.27 385.57C1319.55 387.61 1315.32 388.63 1310.58 388.63C1305.84 388.63 1301.58 387.61 1297.8 385.57C1294.08 383.53 1291.14 380.62 1288.98 376.84C1286.82 373 1285.74 368.5 1285.74 363.34C1285.74 358.18 1286.82 353.68 1288.98 349.84C1291.14 346 1294.08 343.06 1297.8 341.02C1301.58 338.98 1305.84 337.96 1310.58 337.96ZM1310.58 345.16C1307.64 345.16 1304.91 345.82 1302.39 347.14C1299.93 348.46 1297.92 350.5 1296.36 353.26C1294.86 355.96 1294.11 359.32 1294.11 363.34C1294.11 367.3 1294.86 370.66 1296.36 373.42C1297.92 376.12 1299.93 378.13 1302.39 379.45C1304.91 380.77 1307.64 381.43 1310.58 381.43C1313.52 381.43 1316.22 380.77 1318.68 379.45C1321.2 378.13 1323.21 376.12 1324.71 373.42C1326.27 370.66 1327.05 367.3 1327.05 363.34C1327.05 359.32 1326.27 355.96 1324.71 353.26C1323.21 350.5 1321.2 348.46 1318.68 347.14C1316.22 345.82 1313.52 345.16 1310.58 345.16ZM1365.44 348.58C1367.06 345.16 1369.43 342.52 1372.55 340.66C1375.67 338.74 1379.39 337.78 1383.71 337.78V346.69H1381.19C1376.57 346.69 1372.79 347.89 1369.85 350.29C1366.91 352.63 1365.44 356.53 1365.44 361.99V388H1357.25V338.59H1365.44V348.58ZM1444.72 348.58C1446.34 345.16 1448.71 342.52 1451.83 340.66C1454.95 338.74 1458.67 337.78 1462.99 337.78V346.69H1460.47C1455.85 346.69 1452.07 347.89 1449.13 350.29C1446.19 352.63 1444.72 356.53 1444.72 361.99V388H1436.53V338.59H1444.72V348.58ZM1527.77 360.55C1527.77 362.29 1527.65 363.79 1527.41 365.05H1487.9C1488.08 370.69 1489.67 374.92 1492.67 377.74C1495.73 380.56 1499.45 381.97 1503.83 381.97C1507.79 381.97 1511.09 380.98 1513.73 379C1516.43 376.96 1518.08 374.26 1518.68 370.9H1527.41C1526.81 374.32 1525.46 377.38 1523.36 380.08C1521.32 382.78 1518.65 384.88 1515.35 386.38C1512.05 387.88 1508.33 388.63 1504.19 388.63C1499.45 388.63 1495.25 387.61 1491.59 385.57C1487.93 383.53 1485.05 380.62 1482.95 376.84C1480.91 373 1479.89 368.5 1479.89 363.34C1479.89 358.18 1480.91 353.68 1482.95 349.84C1485.05 346 1487.93 343.06 1491.59 341.02C1495.25 338.98 1499.45 337.96 1504.19 337.96C1508.99 337.96 1513.16 338.98 1516.7 341.02C1520.3 343.06 1523.03 345.79 1524.89 349.21C1526.81 352.63 1527.77 356.41 1527.77 360.55ZM1519.49 361.09C1519.67 357.43 1519.07 354.37 1517.69 351.91C1516.31 349.45 1514.42 347.62 1512.02 346.42C1509.62 345.22 1507.01 344.62 1504.19 344.62C1499.69 344.62 1495.91 346.03 1492.85 348.85C1489.79 351.61 1488.14 355.69 1487.9 361.09H1519.49ZM1575.74 337.78C1581.5 337.78 1586.15 339.64 1589.69 343.36C1593.23 347.02 1595 352.33 1595 359.29V388H1586.81V360.01C1586.81 355.09 1585.55 351.31 1583.03 348.67C1580.51 346.03 1577.09 344.71 1572.77 344.71C1568.27 344.71 1564.67 346.18 1561.97 349.12C1559.27 352 1557.92 356.23 1557.92 361.81V388H1549.73V338.59H1557.92V350.29C1559.18 346.27 1561.4 343.18 1564.58 341.02C1567.82 338.86 1571.54 337.78 1575.74 337.78ZM1642.39 380.8V388H1636.27C1631.23 388 1627.45 386.8 1624.93 384.4C1622.47 382 1621.24 377.98 1621.24 372.34V345.7H1613.86V338.59H1621.24V326.26H1629.52V338.59H1642.3V345.7H1629.52V372.52C1629.52 375.7 1630.09 377.89 1631.23 379.09C1632.43 380.23 1634.47 380.8 1637.35 380.8H1642.39Z" fill="#5A5A5A"/>
</svg>
